{
  "accessors": [
    {
      "bufferView": 2,
      "componentType": 5126,
      "count": 18085,
      "max": [
        0.46320709586143494,
        0.4671071171760559,
        0.47089093923568726
      ],
      "min": [
        -0.4658595621585846,
        -0.4665573239326477,
        -0.4758267104625702
      ],
      "type": "VEC3"
    },
    {
      "bufferView": 2,
      "byteOffset": 217020,
      "componentType": 5126,
      "count": 18085,
      "type": "VEC3"
    },
    {
      "bufferView": 3,
      "componentType": 5126,
      "count": 18085,
      "type": "VEC4"
    },
    {
      "bufferView": 1,
      "componentType": 5126,
      "count": 18085,
      "type": "VEC2"
    },
    {
      "bufferView": 1,
      "byteOffset": 144680,
      "componentType": 5126,
      "count": 18085,
      "type": "VEC2"
    },
    {
      "bufferView": 1,
      "byteOffset": 289360,
      "componentType": 5126,
      "count": 18085,
      "type": "VEC2"
    },
    {
      "bufferView": 0,
      "componentType": 5125,
      "count": 93642,
      "type": "SCALAR"
    }
  ],
  "asset": {
    "generator": "fab-model-conversion",
    "version": "2.0"
  },
  "bufferViews": [
    {
      "buffer": 0,
      "byteLength": 374568,
      "target": 34963
    },
    {
      "buffer": 0,
      "byteLength": 434040,
      "byteOffset": 374568,
      "byteStride": 8,
      "target": 34962
    },
    {
      "buffer": 0,
      "byteLength": 434040,
      "byteOffset": 808608,
      "byteStride": 12,
      "target": 34962
    },
    {
      "buffer": 0,
      "byteLength": 289360,
      "byteOffset": 1242648,
      "byteStride": 16,
      "target": 34962
    }
  ],
  "buffers": [
    {
      "byteLength": 1532008,
      "uri": "scene.bin"
    }
  ],
  "images": [
    {
      "uri": "textures/tripo_mat_ff908d53-70fb-419e-97e1-e113fce7f4e1_baseColor.png"
    },
    {
      "uri": "textures/tripo_mat_ff908d53-70fb-419e-97e1-e113fce7f4e1_metallicRoughness.png"
    },
    {
      "uri": "textures/tripo_mat_ff908d53-70fb-419e-97e1-e113fce7f4e1_normal.png"
    }
  ],
  "materials": [
    {
      "doubleSided": true,
      "name": "tripo_mat_ff908d53-70fb-419e-97e1-e113fce7f4e1",
      "normalTexture": {
        "index": 2
      },
      "pbrMetallicRoughness": {
        "baseColorTexture": {
          "index": 0
        },
        "metallicRoughnessTexture": {
          "index": 1
        }
      }
    }
  ],
  "meshes": [
    {
      "name": "tripo_node_ff908d53-70fb-419e-97e1-e113fce7f4e1_tripo_mat_ff908d53-70fb-419e-97e1-e113fce7f4e1_0",
      "primitives": [
        {
          "attributes": {
            "NORMAL": 1,
            "POSITION": 0,
            "TANGENT": 2,
            "TEXCOORD_0": 3,
            "TEXCOORD_1": 4,
            "TEXCOORD_2": 5
          },
          "indices": 6,
          "material": 0,
          "mode": 4
        }
      ]
    }
  ],
  "nodes": [
    {
      "children": [
        1
      ],
      "matrix": [
        1.0,
        0.0,
        0.0,
        0.0,
        0.0,
        2.220446049250313e-16,
        -1.0,
        0.0,
        0.0,
        1.0,
        2.220446049250313e-16,
        0.0,
        0.0,
        0.0,
        0.0,
        1.0
      ],
      "name": "Sketchfab_model"
    },
    {
      "children": [
        2
      ],
      "matrix": [
        0.009999999776482582,
        0.0,
        0.0,
        0.0,
        0.0,
        0.0,
        0.009999999776482582,
        0.0,
        0.0,
        -0.009999999776482582,
        0.0,
        0.0,
        0.0,
        0.0,
        0.0,
        1.0
      ],
      "name": "tripo_convert_ff908d53_70fb_419e_97e1_e113fce7f4e1.fbx"
    },
    {
      "children": [
        3
      ],
      "name": "RootNode"
    },
    {
      "children": [
        4
      ],
      "matrix": [
        100.0,
        0.0,
        0.0,
        0.0,
        0.0,
        -4.371139006309477e-06,
        -99.9999999999999,
        0.0,
        0.0,
        99.9999999999999,
        -4.371139006309477e-06,
        0.0,
        0.0,
        0.0,
        0.0,
        1.0
      ],
      "name": "tripo_node_ff908d53-70fb-419e-97e1-e113fce7f4e1"
    },
    {
      "mesh": 0,
      "name": "tripo_node_ff908d53-70fb-419e-97e1-e113fce7f4e1_tripo_mat_ff908d53-70fb-419e-97e1-e113fce7f4e1_0"
    }
  ],
  "samplers": [
    {
      "magFilter": 9729,
      "minFilter": 9987,
      "wrapS": 10497,
      "wrapT": 10497
    }
  ],
  "scene": 0,
  "scenes": [
    {
      "name": "Sketchfab_Scene",
      "nodes": [
        0
      ]
    }
  ],
  "textures": [
    {
      "sampler": 0,
      "source": 0
    },
    {
      "sampler": 0,
      "source": 1
    },
    {
      "sampler": 0,
      "source": 2
    }
  ]
}
